<svg width="110" height="42" viewBox="0 0 110 42" fill="none" xmlns="http://www.w3.org/2000/svg">
<path d="M86.8139 33.2217C85.3407 33.2217 84.2296 32.7252 84.2296 31.8209V10.2645C84.2296 9.31451 85.091 8.83952 86.8139 8.83952H87.882C89.4051 8.83952 90.4421 9.28714 90.4421 10.2645V31.8209C90.4421 32.7548 89.5887 33.2217 87.882 33.2217H86.8139Z" fill="#0051FF"/>
<path d="M46.413 33.2217C44.9399 33.2217 43.8288 32.7252 43.8288 31.8209V10.2403C43.8288 9.29036 44.6902 8.81539 46.413 8.81539H47.4992C49.0222 8.81539 50.0593 9.26301 50.0593 10.2404V31.8209C50.0593 32.7548 49.2059 33.2217 47.4992 33.2217H46.413Z" fill="#0051FF"/>
<path d="M34.6206 10.3659C35.5681 8.83941 35.5748 8.83952 37.5289 8.83952L38.1709 8.83952C40.34 8.81539 41.0495 9.86055 40.4895 10.7717L32.2681 23.8746V31.8209C32.2681 32.7547 31.6019 33.2217 29.8952 33.2217H29.4033C27.9302 33.2217 27.0414 32.7252 27.0414 31.8208V23.8746L18.82 10.7717C18.26 9.86055 18.9694 8.81539 21.1386 8.83952L21.7806 8.83952C23.7347 8.83952 23.7414 8.83941 24.6889 10.3659L29.6553 18.8626L34.6206 10.3659Z" fill="#0051FF"/>
<path d="M53.9201 31.8209V11.436C53.9201 10.3879 54.7411 9.91642 56.1238 9.49841C57.5065 9.08041 61.8481 7.48798 66.5544 11.02C71.0143 7.5865 80.7451 8.37471 80.7451 17.7347V31.8209C80.7451 32.7548 79.8918 33.2217 78.185 33.2217H77.95C76.4769 33.2217 75.3658 32.7252 75.3658 31.8209V19.6812C75.3658 17.0437 72.8732 15.5067 70.7756 16.029C70.2851 16.2036 70.0755 16.4058 70.0755 17.0593V31.8209C70.0755 32.7548 69.2221 33.2217 67.5154 33.2217H67.2511C65.778 33.2217 64.6669 32.7252 64.6669 31.8209V19.6812C64.6669 17.0437 62.1742 15.5067 60.0767 16.029C59.5861 16.2036 59.3766 16.4058 59.3766 17.0593V31.8209C59.3766 32.7548 58.5232 33.2217 56.8164 33.2217H56.5043C55.0312 33.2217 53.9201 32.7252 53.9201 31.8209Z" fill="#0051FF"/>
</svg>
